<svg width="200" height="44" viewBox="0 0 200 44" fill="none" xmlns="http://www.w3.org/2000/svg">
  <rect width="200" height="44" rx="12" fill="white"/>
  <path d="M30 10L24 34H19L13 10H17.6L21.5 27.8L25.5 10H30Z" fill="#1F2937"/>
  <path d="M42.8 34H38V10H42.8V34Z" fill="#1F2937"/>
  <path d="M70.4 10L62.9 34H57.7L50.2 10H55.2L60.4 28.9L65.6 10H70.4Z" fill="#1F2937"/>
  <path d="M83.5 10H88.3V26.4C88.3 31.2 85.4 34 80.1 34C74.8 34 71.8 31.2 71.8 26.4V10H76.6V26.1C76.6 28.5 77.9 29.9 80.2 29.9C82.5 29.9 83.5 28.5 83.5 26.1V10Z" fill="#1F2937"/>
  <path d="M100.9 34H95.9V10H105.1C109.5 10 112.2 12.6 112.2 16.4C112.2 19.2 110.6 21.1 108.1 21.8L112.7 34H107.4L103.3 21.9H100.9V34ZM105 18.5C106.9 18.5 107.9 17.6 107.9 16.3C107.9 15 106.9 14 105 14H100.9V18.5H105Z" fill="#1F2937"/>
  <path d="M122.2 10H136.9V14H127V19H135.4V23H127V29.9H137.1V34H122.2V10Z" fill="#1F2937"/>
  <path d="M147 34H142.2V10H154.3C158.7 10 161.5 12.7 161.5 16.4C161.5 19.2 159.9 21.1 157.4 21.8L162 34H156.6L152.5 21.9H147V34ZM151.9 18.5C153.8 18.5 154.8 17.6 154.8 16.3C154.8 15 153.8 14 151.9 14H147V18.5H151.9Z" fill="#1F2937"/>
  <path d="M167.3 10H184.5V14H176.1V34H171.3V14H167.3V10Z" fill="#1F2937"/>
</svg>

